<?xml version="1.0" encoding="UTF-8" standalone="no"?>
<!-- Generator: Adobe Illustrator 15.1.0, SVG Export Plug-In . SVG Version: 6.00 Build 0)  -->

<svg
   xmlns:dc="http://purl.org/dc/elements/1.1/"
   xmlns:cc="http://creativecommons.org/ns#"
   xmlns:rdf="http://www.w3.org/1999/02/22-rdf-syntax-ns#"
   xmlns:svg="http://www.w3.org/2000/svg"
   xmlns="http://www.w3.org/2000/svg"
   xmlns:sodipodi="http://sodipodi.sourceforge.net/DTD/sodipodi-0.dtd"
   xmlns:inkscape="http://www.inkscape.org/namespaces/inkscape"
   version="1.1"
   id="Layer_1"
   x="0px"
   y="0px"
   width="512px"
   height="512px"
   viewBox="0 0 512 512"
   enable-background="new 0 0 512 512"
   xml:space="preserve"
   sodipodi:docname="15.svg"
   inkscape:version="0.92.3 (2405546, 2018-03-11)"><metadata
   id="metadata472"><rdf:RDF><cc:Work
       rdf:about=""><dc:format>image/svg+xml</dc:format><dc:type
         rdf:resource="http://purl.org/dc/dcmitype/StillImage" /></cc:Work></rdf:RDF></metadata><defs
   id="defs470" /><sodipodi:namedview
   pagecolor="#ffffff"
   bordercolor="#666666"
   borderopacity="1"
   objecttolerance="10"
   gridtolerance="10"
   guidetolerance="10"
   inkscape:pageopacity="0"
   inkscape:pageshadow="2"
   inkscape:window-width="640"
   inkscape:window-height="480"
   id="namedview468"
   showgrid="false"
   inkscape:zoom="0.4609375"
   inkscape:cx="256"
   inkscape:cy="256"
   inkscape:window-x="0"
   inkscape:window-y="27"
   inkscape:window-maximized="0"
   inkscape:current-layer="Layer_1" />

<path
   fill="#1D1D1B"
   d="M400,64c-5.312,0-10.562,0.375-15.792,1.125C354.334,24.417,307.188,0,256,0  c-51.188,0-98.312,24.417-128.208,65.125C122.562,64.375,117.312,64,112,64C50.25,64,0,114.25,0,176s50.25,112,112,112  c13.688,0,27.084-2.5,39.709-7.333c21.541,18.771,47.416,31.291,75.104,36.521L192,352l32,32l-32,96l96-96l-32-32l11-32.999  c34.458-2.438,67.125-15.543,93.291-38.334C372.916,285.5,386.312,288,400,288c61.75,0,112-50.25,112-112S461.75,64,400,64z   M400,256c-17.125,0-32.916-5.5-45.938-14.667c-18.938,22.833-45.562,38.625-75.875,44.104L256,288  c-39.625,0-74.584-18.375-98.062-46.667C144.938,250.5,129.125,256,112,256c-44.188,0-80-35.812-80-80s35.812-80,80-80  c10.812,0,21.062,2.208,30.438,6.083C163.667,60.667,206.291,32,256,32s92.334,28.667,113.541,70.083  C378.938,98.208,389.209,96,400,96c44.188,0,80,35.812,80,80S444.188,256,400,256z"
   id="path465" />
</svg>