<?xml version="1.0" encoding="UTF-8" standalone="no"?>
<!-- Generator: Adobe Illustrator 15.1.0, SVG Export Plug-In . SVG Version: 6.00 Build 0)  -->

<svg
   xmlns:dc="http://purl.org/dc/elements/1.1/"
   xmlns:cc="http://creativecommons.org/ns#"
   xmlns:rdf="http://www.w3.org/1999/02/22-rdf-syntax-ns#"
   xmlns:svg="http://www.w3.org/2000/svg"
   xmlns="http://www.w3.org/2000/svg"
   xmlns:sodipodi="http://sodipodi.sourceforge.net/DTD/sodipodi-0.dtd"
   xmlns:inkscape="http://www.inkscape.org/namespaces/inkscape"
   version="1.1"
   id="Layer_1"
   x="0px"
   y="0px"
   width="512px"
   height="512px"
   viewBox="0 0 512 512"
   enable-background="new 0 0 512 512"
   xml:space="preserve"
   sodipodi:docname="31.svg"
   inkscape:version="0.92.3 (2405546, 2018-03-11)"><metadata
   id="metadata76"><rdf:RDF><cc:Work
       rdf:about=""><dc:format>image/svg+xml</dc:format><dc:type
         rdf:resource="http://purl.org/dc/dcmitype/StillImage" /></cc:Work></rdf:RDF></metadata><defs
   id="defs74" /><sodipodi:namedview
   pagecolor="#ffffff"
   bordercolor="#666666"
   borderopacity="1"
   objecttolerance="10"
   gridtolerance="10"
   guidetolerance="10"
   inkscape:pageopacity="0"
   inkscape:pageshadow="2"
   inkscape:window-width="640"
   inkscape:window-height="480"
   id="namedview72"
   showgrid="false"
   inkscape:zoom="0.4609375"
   inkscape:cx="256"
   inkscape:cy="256"
   inkscape:window-x="0"
   inkscape:window-y="27"
   inkscape:window-maximized="0"
   inkscape:current-layer="Layer_1" />

<path
   fill="#1D1D1B"
   d="M435.062,262.166c4.875-3.625,9.812-7.187,14.229-11.604c13.208-13.229,23.271-29.333,29.792-47.854  c2.083-5.792,0.604-12.292-3.772-16.625c-4.354-4.375-10.812-5.854-16.623-3.792c-35.396,12.5-73.688,4-99.896-22.25  c-26.249-26.25-34.791-64.521-22.249-99.896c2.042-5.812,0.583-12.271-3.792-16.646c-4.333-4.333-10.812-5.833-16.625-3.791  c-18.542,6.583-34.625,16.625-47.834,29.833c-33.541,33.5-43.979,81-32.479,123.792c-43.25,5.521-82.125,28.5-108.021,63.792  c-5.229-0.75-10.479-1.125-15.792-1.125c-61.75,0-112,50.249-112,112c0,61.75,50.25,112,112,112c13.688,0,27.084-2.501,39.709-7.334  C180.665,497.916,217.499,512,255.999,512c38.542,0,75.333-14.084,104.291-39.334c12.625,4.833,26.021,7.334,39.709,7.334  c61.75,0,112-50.25,112-112C512,318.562,479.583,276.979,435.062,262.166z M290.916,92.167c2.542-2.583,5.271-4.979,8.146-7.229  c-2.25,35.979,10.729,71.375,37.104,97.729c26.376,26.375,61.771,39.333,97.751,37.104c-13.792,17.584-32.792,28.521-53.126,33.188  c-27.375-34.75-67.604-56.624-111.958-60.187C256.562,158.813,263.75,119.333,290.916,92.167z"
   id="path69" />
</svg>