<?xml version="1.0" encoding="UTF-8" standalone="no"?>
<!-- Generator: Adobe Illustrator 15.1.0, SVG Export Plug-In . SVG Version: 6.00 Build 0)  -->

<svg
   xmlns:dc="http://purl.org/dc/elements/1.1/"
   xmlns:cc="http://creativecommons.org/ns#"
   xmlns:rdf="http://www.w3.org/1999/02/22-rdf-syntax-ns#"
   xmlns:svg="http://www.w3.org/2000/svg"
   xmlns="http://www.w3.org/2000/svg"
   xmlns:sodipodi="http://sodipodi.sourceforge.net/DTD/sodipodi-0.dtd"
   xmlns:inkscape="http://www.inkscape.org/namespaces/inkscape"
   version="1.1"
   id="Layer_1"
   x="0px"
   y="0px"
   width="512px"
   height="512px"
   viewBox="0 0 512 512"
   enable-background="new 0 0 512 512"
   xml:space="preserve"
   sodipodi:docname="32.svg"
   inkscape:version="0.92.3 (2405546, 2018-03-11)"><metadata
   id="metadata152"><rdf:RDF><cc:Work
       rdf:about=""><dc:format>image/svg+xml</dc:format><dc:type
         rdf:resource="http://purl.org/dc/dcmitype/StillImage" /></cc:Work></rdf:RDF></metadata><defs
   id="defs150" /><sodipodi:namedview
   pagecolor="#ffffff"
   bordercolor="#666666"
   borderopacity="1"
   objecttolerance="10"
   gridtolerance="10"
   guidetolerance="10"
   inkscape:pageopacity="0"
   inkscape:pageshadow="2"
   inkscape:window-width="640"
   inkscape:window-height="480"
   id="namedview148"
   showgrid="false"
   inkscape:zoom="0.4609375"
   inkscape:cx="256"
   inkscape:cy="256"
   inkscape:window-x="0"
   inkscape:window-y="27"
   inkscape:window-maximized="0"
   inkscape:current-layer="Layer_1" />

<path
   fill-rule="evenodd"
   clip-rule="evenodd"
   fill="#1D1D1B"
   d="M400,160c-5.312,0-10.562,0.375-15.792,1.125  C354.334,120.417,307.188,96,256,96s-98.312,24.417-128.208,65.125C122.562,160.375,117.312,160,112,160C50.25,160,0,210.25,0,272  c0,61.75,50.25,112,112,112c13.688,0,27.084-2.5,39.709-7.333C180.666,401.917,217.5,416,256,416  c38.542,0,75.333-14.083,104.291-39.333C372.916,381.5,386.312,384,400,384c61.75,0,112-50.25,112-112  C512,210.25,461.75,160,400,160z"
   id="path145" />
</svg>