<?xml version="1.0" encoding="UTF-8" standalone="no"?>
<!-- Generator: Adobe Illustrator 15.1.0, SVG Export Plug-In . SVG Version: 6.00 Build 0)  -->

<svg
   xmlns:dc="http://purl.org/dc/elements/1.1/"
   xmlns:cc="http://creativecommons.org/ns#"
   xmlns:rdf="http://www.w3.org/1999/02/22-rdf-syntax-ns#"
   xmlns:svg="http://www.w3.org/2000/svg"
   xmlns="http://www.w3.org/2000/svg"
   xmlns:sodipodi="http://sodipodi.sourceforge.net/DTD/sodipodi-0.dtd"
   xmlns:inkscape="http://www.inkscape.org/namespaces/inkscape"
   version="1.1"
   id="Layer_1"
   x="0px"
   y="0px"
   width="512px"
   height="512px"
   viewBox="0 0 512 512"
   enable-background="new 0 0 512 512"
   xml:space="preserve"
   sodipodi:docname="4.svg"
   inkscape:version="0.92.3 (2405546, 2018-03-11)"><metadata
   id="metadata243"><rdf:RDF><cc:Work
       rdf:about=""><dc:format>image/svg+xml</dc:format><dc:type
         rdf:resource="http://purl.org/dc/dcmitype/StillImage" /></cc:Work></rdf:RDF></metadata><defs
   id="defs241" /><sodipodi:namedview
   pagecolor="#ffffff"
   bordercolor="#666666"
   borderopacity="1"
   objecttolerance="10"
   gridtolerance="10"
   guidetolerance="10"
   inkscape:pageopacity="0"
   inkscape:pageshadow="2"
   inkscape:window-width="640"
   inkscape:window-height="480"
   id="namedview239"
   showgrid="false"
   inkscape:zoom="0.4609375"
   inkscape:cx="256"
   inkscape:cy="256"
   inkscape:window-x="0"
   inkscape:window-y="27"
   inkscape:window-maximized="0"
   inkscape:current-layer="Layer_1" />

<g
   id="g236">
	<g
   id="g234">
		<path
   fill="#1D1D1B"
   d="M271,127c8.833,0,16-7.167,16-16V79c0-8.833-7.167-16-16-16s-16,7.167-16,16v32    C255,119.833,262.167,127,271,127z M271,415c-8.833,0-16,7.167-16,16v32c0,8.833,7.167,16,16,16s16-7.167,16-16v-32    C287,422.167,279.833,415,271,415z M146.562,372.834l-22.625,22.625c-6.25,6.249-6.25,16.374,0,22.624s16.375,6.25,22.625,0    l22.625-22.624c6.25-6.271,6.25-16.376,0-22.625C162.938,366.583,152.812,366.562,146.562,372.834z M127,271    c0-8.833-7.167-16-16-16H79c-8.833,0-16,7.167-16,16s7.167,16,16,16h32C119.833,287,127,279.833,127,271z M146.541,169.167    c6.251,6.25,16.376,6.25,22.625,0c6.251-6.25,6.251-16.375,0-22.625l-22.625-22.625c-6.25-6.25-16.374-6.25-22.625,0    c-6.25,6.25-6.25,16.375,0,22.625L146.541,169.167z M335,159c-11.188,0-21.812,2.167-32,5.208    c-10.188-3.042-20.812-5.208-32-5.208c-61.75,0-112,50.25-112,112s50.25,112,112,112c11.188,0,21.812-2.166,32-5.209    c10.188,3.043,20.812,5.209,32,5.209c61.75,0,112-50.25,112-112S396.75,159,335,159z M255.229,349.417    C218.583,342.084,191,309.791,191,271c0-38.792,27.583-71.083,64.229-78.417C235.334,212.812,223,240.458,223,271    S235.334,329.188,255.229,349.417z"
   id="path232" />
	</g>
</g>
</svg>