<?xml version="1.0" encoding="UTF-8" standalone="no"?>
<!-- Generator: Adobe Illustrator 15.1.0, SVG Export Plug-In . SVG Version: 6.00 Build 0)  -->

<svg
   xmlns:dc="http://purl.org/dc/elements/1.1/"
   xmlns:cc="http://creativecommons.org/ns#"
   xmlns:rdf="http://www.w3.org/1999/02/22-rdf-syntax-ns#"
   xmlns:svg="http://www.w3.org/2000/svg"
   xmlns="http://www.w3.org/2000/svg"
   xmlns:sodipodi="http://sodipodi.sourceforge.net/DTD/sodipodi-0.dtd"
   xmlns:inkscape="http://www.inkscape.org/namespaces/inkscape"
   version="1.1"
   id="Layer_1"
   x="0px"
   y="0px"
   width="512px"
   height="512px"
   viewBox="0 0 512 512"
   enable-background="new 0 0 512 512"
   xml:space="preserve"
   sodipodi:docname="41.svg"
   inkscape:version="0.92.3 (2405546, 2018-03-11)"><metadata
   id="metadata76"><rdf:RDF><cc:Work
       rdf:about=""><dc:format>image/svg+xml</dc:format><dc:type
         rdf:resource="http://purl.org/dc/dcmitype/StillImage" /></cc:Work></rdf:RDF></metadata><defs
   id="defs74" /><sodipodi:namedview
   pagecolor="#ffffff"
   bordercolor="#666666"
   borderopacity="1"
   objecttolerance="10"
   gridtolerance="10"
   guidetolerance="10"
   inkscape:pageopacity="0"
   inkscape:pageshadow="2"
   inkscape:window-width="640"
   inkscape:window-height="480"
   id="namedview72"
   showgrid="false"
   inkscape:zoom="0.4609375"
   inkscape:cx="256"
   inkscape:cy="256"
   inkscape:window-x="0"
   inkscape:window-y="27"
   inkscape:window-maximized="0"
   inkscape:current-layer="Layer_1" />

<path
   fill="#1D1D1B"
   d="M488.334,247.417c14.624,18.916,23.666,42.312,23.666,68c0,61.749-50.25,112-112,112  c-13.688,0-27.084-2.5-39.709-7.333c-28.958,25.249-65.749,39.333-104.291,39.333c-38.5,0-75.334-14.084-104.291-39.333  c-12.625,4.833-26.021,7.333-39.709,7.333c-61.75,0-112-50.251-112-112c0-61.75,50.25-112,112-112  c5.312,0,10.562,0.375,15.792,1.125c0.521-0.729,1.166-1.375,1.708-2.083c-0.812-4.938-1.5-9.896-1.5-15.041  c0-49.167,40-89.146,89.125-89.146c2.416,0,4.812,0.104,7.188,0.292c23.125-28.854,58-45.979,95.688-45.979  c37.709,0,72.562,17.125,95.688,45.979c2.375-0.188,4.75-0.292,7.146-0.292C472,98.271,512,138.25,512,187.417  C512,210.583,502.916,231.521,488.334,247.417z"
   id="path69" />
</svg>