<?xml version="1.0" encoding="UTF-8" standalone="no"?>
<!-- Generator: Adobe Illustrator 15.1.0, SVG Export Plug-In . SVG Version: 6.00 Build 0)  -->

<svg
   xmlns:dc="http://purl.org/dc/elements/1.1/"
   xmlns:cc="http://creativecommons.org/ns#"
   xmlns:rdf="http://www.w3.org/1999/02/22-rdf-syntax-ns#"
   xmlns:svg="http://www.w3.org/2000/svg"
   xmlns="http://www.w3.org/2000/svg"
   xmlns:sodipodi="http://sodipodi.sourceforge.net/DTD/sodipodi-0.dtd"
   xmlns:inkscape="http://www.inkscape.org/namespaces/inkscape"
   version="1.1"
   id="Layer_1"
   x="0px"
   y="0px"
   width="512px"
   height="512px"
   viewBox="0 0 512 512"
   enable-background="new 0 0 512 512"
   xml:space="preserve"
   sodipodi:docname="42.svg"
   inkscape:version="0.92.3 (2405546, 2018-03-11)"><metadata
   id="metadata152"><rdf:RDF><cc:Work
       rdf:about=""><dc:format>image/svg+xml</dc:format><dc:type
         rdf:resource="http://purl.org/dc/dcmitype/StillImage" /></cc:Work></rdf:RDF></metadata><defs
   id="defs150" /><sodipodi:namedview
   pagecolor="#ffffff"
   bordercolor="#666666"
   borderopacity="1"
   objecttolerance="10"
   gridtolerance="10"
   guidetolerance="10"
   inkscape:pageopacity="0"
   inkscape:pageshadow="2"
   inkscape:window-width="640"
   inkscape:window-height="480"
   id="namedview148"
   showgrid="false"
   inkscape:zoom="0.4609375"
   inkscape:cx="256"
   inkscape:cy="256"
   inkscape:window-x="0"
   inkscape:window-y="27"
   inkscape:window-maximized="0"
   inkscape:current-layer="Layer_1" />

<path
   fill="#1D1D1B"
   d="M512,134.833c0-49.146-40-89.124-89.167-89.124c-2.396,0-4.771,0.083-7.146,0.27  C392.562,17.146,357.709,0,320,0c-37.688,0-72.562,17.146-95.688,45.979c-2.375-0.187-4.771-0.27-7.188-0.27  C168,45.709,128,85.688,128,134.833c0,5.146,0.688,10.125,1.5,15.042c-0.542,0.708-1.188,1.354-1.708,2.083  c-5.229-0.75-10.479-1.125-15.792-1.125c-61.75,0-112,50.25-112,112c0,61.751,50.25,112,112,112c13.688,0,27.084-2.499,39.709-7.333  c18.354,16,40.104,26.938,63.207,33.208L192,416l32,32l-32,64l96-64l-32-32l4.812-9.583c36.75-1.125,71.75-14.729,99.479-38.917  c12.625,4.834,26.021,7.333,39.709,7.333c61.75,0,112-50.249,112-112c0-25.666-9.042-49.083-23.666-68  C502.916,178.958,512,158.021,512,134.833z"
   id="path145" />
</svg>