<?xml version="1.0" encoding="UTF-8" standalone="no"?>
<!-- Generator: Adobe Illustrator 15.1.0, SVG Export Plug-In . SVG Version: 6.00 Build 0)  -->

<svg
   xmlns:dc="http://purl.org/dc/elements/1.1/"
   xmlns:cc="http://creativecommons.org/ns#"
   xmlns:rdf="http://www.w3.org/1999/02/22-rdf-syntax-ns#"
   xmlns:svg="http://www.w3.org/2000/svg"
   xmlns="http://www.w3.org/2000/svg"
   xmlns:sodipodi="http://sodipodi.sourceforge.net/DTD/sodipodi-0.dtd"
   xmlns:inkscape="http://www.inkscape.org/namespaces/inkscape"
   version="1.1"
   id="Layer_1"
   x="0px"
   y="0px"
   width="512px"
   height="512px"
   viewBox="0 0 512 512"
   enable-background="new 0 0 512 512"
   xml:space="preserve"
   sodipodi:docname="47.svg"
   inkscape:version="0.92.3 (2405546, 2018-03-11)"><metadata
   id="metadata548"><rdf:RDF><cc:Work
       rdf:about=""><dc:format>image/svg+xml</dc:format><dc:type
         rdf:resource="http://purl.org/dc/dcmitype/StillImage" /></cc:Work></rdf:RDF></metadata><defs
   id="defs546" /><sodipodi:namedview
   pagecolor="#ffffff"
   bordercolor="#666666"
   borderopacity="1"
   objecttolerance="10"
   gridtolerance="10"
   guidetolerance="10"
   inkscape:pageopacity="0"
   inkscape:pageshadow="2"
   inkscape:window-width="751"
   inkscape:window-height="480"
   id="namedview544"
   showgrid="false"
   inkscape:zoom="0.4609375"
   inkscape:cx="488.96"
   inkscape:cy="414.9261"
   inkscape:window-x="0"
   inkscape:window-y="27"
   inkscape:window-maximized="0"
   inkscape:current-layer="Layer_1" />

<g
   id="g541">
	<g
   id="g539">
		<path
   fill="#1D1D1B"
   d="M208.531,177.271c-3.604-3.396-7.791-6.084-12.541-8.062c-4.812-1.938-9.938-2.938-15.375-2.938    c-5.459,0-10.584,1-15.375,2.938c-4.75,1.979-8.938,4.667-12.542,8.062c-3.583,3.416-6.396,7.416-8.459,12.041    c-2.042,4.605-3.062,9.479-3.062,14.584c0,5.125,1.02,10,3.062,14.604c2.063,4.604,4.876,8.625,8.459,12.021    c3.604,3.416,7.792,6.125,12.542,8.062c4.791,1.979,9.916,2.958,15.375,2.958c5.438,0,10.562-0.979,15.375-2.958    c4.75-1.938,8.938-4.646,12.541-8.062c3.584-3.396,6.396-7.417,8.416-12.021c2.042-4.604,3.105-9.479,3.105-14.604    c0-5.104-1.063-9.979-3.105-14.584C214.927,184.687,212.115,180.687,208.531,177.271z M193.177,215.937    c-3.438,3.417-7.625,5.126-12.562,5.126s-9.125-1.709-12.562-5.126c-3.396-3.416-5.125-7.416-5.125-12.041    c0-4.75,1.729-8.833,5.125-12.146c3.438-3.333,7.625-4.979,12.562-4.979s9.125,1.646,12.562,4.979    c3.374,3.312,5.104,7.396,5.104,12.146C198.281,208.521,196.551,212.521,193.177,215.937z M370.822,200.833v-31.5H249.24v176.396    h35.063v-71.938h73.979v-31.479h-73.979v-41.479H370.822z"
   id="path537" />
	</g>
</g>
</svg>